<svg xmlns="http://www.w3.org/2000/svg" xmlns:xlink="http://www.w3.org/1999/xlink" xmlns:inkscape="http://www.inkscape.org/namespaces/inkscape" version="1.1" width="925.5667" height="120.87671" viewBox="0 0 925.5667 120.87671">
<defs>
<clipPath id="clip_0">
<path transform="matrix(1,0,0,-1,-48.89647,447.9767)" d="M48.89647 327.1H974.4632V447.9767H48.89647Z" clip-rule="evenodd"/>
</clipPath>
<clipPath id="clip_1">
<path transform="matrix(1,0,0,-1,-48.89647,447.9767)" d="M54.5612 350.634H141.028V399.282H54.5612Z"/>
</clipPath>
<clipPath id="clip_2">
<path transform="matrix(1,0,0,-1,-48.89647,447.9767)" d="M151.534 330.453H969.398V445.443H151.534Z"/>
</clipPath>
</defs>
<g clip-path="url(#clip_0)">
<g clip-path="url(#clip_1)">
<path transform="matrix(1,0,0,-1,-48.89647,447.9767)" d="M55.2242 358.0234C55.9323 353.893 57.7025 351.5328 60.3577 351.0017 60.9478 350.8837 62.0689 350.8837 62.777 351.0607 66.0813 351.7688 70.0347 354.7191 74.3421 359.7936 76.1713 361.9178 76.4073 362.2718 77.1744 364.219 78.5316 367.7003 79.1216 370.5916 79.0036 373.0109 78.9446 374.958 78.2955 376.3152 77.1744 376.8462 76.5844 377.0822 75.7583 377.1413 74.9912 376.9642 72.631 376.2562 69.7397 373.6009 67.0254 369.4705 66.6714 368.8805 66.3173 368.4084 66.3173 368.4084 66.2583 368.3494 66.6714 369.7655 67.6155 373.1879 68.2055 375.2531 68.9726 377.6723 69.7397 379.9735 71.7459 385.9331 72.5129 388.4704 72.808 389.8865 72.926 390.2995 72.985 390.5946 73.044 390.7126 73.044 390.7716 73.162 391.2436 73.28 391.7157 73.339 392.1877 73.5161 392.7778 73.5161 393.0138 73.6931 393.7809 73.7521 394.5479 73.6341 395.138 73.5751 395.551 73.5161 395.8461 73.221 396.4951 72.3359 398.1473 70.9788 399.0324 69.0906 399.0324 68.3235 399.0324 67.9105 398.9144 66.9664 398.4423 60.1807 394.5479 56.3453 377.0232 55.2832 369.3525 54.9882 367.0513 54.9292 365.8711 54.8702 363.5109 54.8112 361.0327 54.9292 359.6165 55.2242 358.0234ZM63.6621 387.5853C64.2521 390.4766 66.0223 393.0728 68.3235 394.4889L68.5595 394.607 68.7956 394.0169C68.8546 393.7219 68.9136 393.4268 68.9136 393.3678 68.9136 393.3088 68.7366 393.1908 68.5595 393.0728 66.7304 392.0107 64.6061 389.2964 63.7801 386.9362 63.6621 386.6412 63.603 386.4051 63.544 386.4051 63.485 386.4051 63.544 386.9952 63.6621 387.5853ZM72.985 364.691C73.8111 365.9892 74.5782 367.8773 74.9322 369.4115L75.0502 370.0606 75.6403 369.7655C75.9353 369.5885 76.2303 369.4115 76.2303 369.3525 76.2893 369.2345 75.3452 367.5233 74.8732 366.8152 74.4011 365.9892 73.6341 365.1041 72.985 364.455L72.631 364.101 72.985 364.691ZM81.1847 359.2625C83.0729 356.9023 85.7871 355.3681 88.6784 354.9551 89.5045 354.8371 91.2157 354.8371 91.9828 354.8961 98.1784 355.6632 103.6069 360.3836 106.6752 365.6941 110.5106 372.3618 111.1597 380.2096 108.3274 385.8741 106.4392 389.8275 103.0759 392.3057 99.0045 392.8368 98.0604 392.9548 95.8181 392.8958 94.8741 392.7188 88.3244 391.4796 82.1878 385.6971 79.3555 378.1443 76.7592 371.1227 77.4673 363.806 81.1847 359.2625ZM95.5231 379.7375C96.0542 380.1505 96.5262 380.3866 96.8803 380.3866 97.2343 380.3866 97.5293 380.1505 97.7063 379.7375 97.8834 379.3835 97.8834 379.3245 97.8834 378.3214 97.8834 375.4301 95.9952 371.4767 93.989 369.4705 93.2809 368.8214 92.8088 368.4084 92.2778 368.2314 91.3337 367.8184 90.8026 368.4084 90.6846 369.7655 90.5076 372.8338 92.9859 377.9673 95.5231 379.7375ZM85.1381 377.8493C85.8461 380.8586 87.8523 384.458 90.5666 387.5263 90.9207 387.9983 91.3337 388.4113 91.3927 388.4704 91.5107 388.5294 91.7467 388.4113 92.6318 387.8213 92.6318 387.8213 92.2188 387.2902 91.5697 386.6412 88.8554 383.8089 86.6722 380.8586 85.6691 378.5574 85.4921 378.2624 85.3151 377.7903 85.1971 377.4363 84.902 376.7872 84.902 376.9052 85.1381 377.8493ZM97.8834 360.9737C99.5355 362.6848 100.8337 364.809 101.2467 366.6382L101.4237 367.1103H101.6597C101.7777 367.1693 102.0138 367.1103 102.1318 367.1103 102.4268 367.0513 102.4268 366.9923 102.2498 366.2252 101.7187 363.5109 100.1256 361.2687 98.1194 360.5016 97.8243 360.3836 97.5293 360.2656 97.4113 360.2656 97.1163 360.2066 97.1753 360.2066 97.8834 360.9737ZM108.3245 377.3183C109.8587 374.0139 113.458 372.3618 116.9394 372.3618 118.9456 372.3618 122.781 372.5978 124.8462 373.0109 126.4983 373.2469 127.6195 373.0698 128.3865 372.5388 128.8586 372.2438 129.0356 371.8307 129.0356 371.2407 129.0356 369.9426 127.9735 369.1165 126.7344 368.8805 126.0853 368.7624 124.9642 368.8214 124.2561 368.9985 123.371 369.2345 121.6008 369.8245 119.8897 370.4736 118.0605 371.1817 116.9984 371.4767 115.7593 371.6537 114.2841 371.8307 112.986 371.7127 112.0419 371.1817 110.5667 370.5326 109.7407 368.4674 109.3866 366.9923 109.2096 366.1072 109.2096 364.632 109.3866 363.983 109.7407 362.2128 111.2748 360.6197 112.6319 359.4985 115.0512 357.6103 117.8835 356.4302 121.2468 356.0762 121.4238 356.0762 122.2499 356.0762 123.135 356.0762 124.4331 356.0762 124.9642 356.1352 125.9673 356.2532 128.2095 356.6663 131.8679 357.8464 133.6971 359.2625 137.5915 362.0948 139.3026 365.9302 140.4238 370.5326 140.7188 371.5947 140.7188 371.7127 140.7778 372.9518 140.7778 375.4891 140.1877 377.3773 138.8896 379.5015 136.8244 382.4518 133.225 384.93 129.5667 384.93 127.9735 384.93 127.1474 384.812 125.4362 384.34 123.9021 383.8679 122.958 383.7499 121.8959 383.8089 121.1288 383.8679 120.5978 383.9269 120.2437 384.1629 120.0077 384.2809 119.7717 384.517 119.7717 384.635 119.7717 384.812 120.3617 385.343 120.7748 385.5791 121.6008 385.9921 122.1909 386.1691 123.194 386.2281 126.0853 386.3462 132.576 386.8772 134.2871 389.5915 135.1722 390.8896 135.4083 392.7188 134.8772 394.0169 134.2281 395.61 132.1039 397.3802 130.1567 398.0293 129.1536 398.3243 128.2685 398.4423 126.6164 398.4423 118.2375 398.4423 112.0419 394.0169 108.9146 386.4642 108.5605 385.6971 108.1475 384.34 107.9705 383.4549 107.5574 381.3897 107.6754 378.6164 108.3245 377.3183ZM113.222 384.871C113.458 386.1101 114.1661 388.2343 114.7562 389.2964 115.6412 390.8896 117.0574 392.4237 117.6475 392.4237 117.7655 392.4237 117.8835 392.4237 117.9425 392.4828 117.9425 392.4828 118.0605 392.5417 118.1785 392.5417 118.4145 392.6008 118.4735 392.5417 118.6505 392.3647 118.8866 392.0697 118.8866 391.8337 118.7096 391.5387 118.5325 391.3026 118.2375 391.0666 117.2934 390.3585 115.5822 389.0604 114.4021 387.5853 113.576 385.5791 113.517 385.343 113.34 384.871 113.281 384.517 113.104 383.8679 113.045 384.0449 113.222 384.871ZM131.6909 363.3339C132.93 364.632 133.7561 365.9302 134.5822 367.8773 134.9362 368.6444 135.2312 369.1165 135.7623 369.4705 136.1163 369.7065 136.1753 369.7065 136.1753 369.2935 136.1753 367.2283 133.225 364.278 131.5138 362.9799L131.1008 362.6848 131.6909 363.3339Z" fill="#2d2d2d"/>
</g>
<g clip-path="url(#clip_2)">
<path transform="matrix(1,0,0,-1,-48.89647,447.9767)" d="M151.7842 362.2657C152.0242 350.5047 157.3047 335.2634 170.8659 333.8232 186.8272 333.8232 195.468 350.2647 197.2681 364.1859 197.5081 366.106 197.8682 372.1066 197.7482 372.9466 197.5081 374.6268 196.5481 376.5469 195.348 377.387 194.1478 378.3471 192.7077 378.9471 191.1476 378.9471 187.6673 378.9471 184.307 376.5469 181.7868 374.2667 178.4265 370.7864 176.2663 365.746 176.6264 361.9057 176.7464 361.3056 176.6264 361.0656 176.5063 360.5856 176.1463 359.9855 175.6663 359.6255 174.5862 359.6255 173.3861 359.6255 172.906 360.2255 172.426 362.5057 171.9459 364.6659 172.0659 370.5464 172.786 374.9868 173.6261 379.5472 174.7062 382.6675 176.5063 385.4277 177.5864 386.8678 179.1466 388.908 179.3866 388.908 179.5066 388.908 179.6266 388.668 179.6266 388.428 179.6266 384.9477 184.547 379.6672 188.3873 379.6672 189.4675 379.6672 189.7075 379.7872 190.5476 380.1473 192.5877 381.2273 194.3879 384.2276 194.3879 386.5078 195.348 389.388 195.948 392.8683 196.068 396.1086 196.5481 402.2292 195.348 407.5096 192.7077 410.8699 191.3876 412.55 189.8275 413.6301 187.7873 414.3502 186.9472 414.5902 186.3472 414.7102 185.0271 414.7102 182.3869 414.8302 180.1066 414.2302 177.1064 412.7901 165.8254 407.1496 155.0245 390.1081 152.8643 374.6268 152.7443 373.5467 152.5043 371.9866 152.3842 371.2665 151.7842 367.7862 151.7842 366.2261 151.7842 362.2657ZM165.4654 385.6677 165.5854 386.2678C166.0654 389.9881 168.4657 394.5485 170.7458 397.5488 172.186 399.3489 175.9063 402.8292 176.5063 402.8292 176.5063 402.8292 176.8664 402.2292 177.1064 401.5091L177.7064 400.069 176.5063 399.2289C173.8661 397.3087 170.3858 393.3484 167.9856 389.8681 167.3855 389.028 166.6655 387.7079 166.1854 386.9878L165.4654 385.6677ZM181.3068 347.2644C183.2269 350.3847 185.7472 355.7851 187.3073 360.4656 187.6673 361.5456 188.0273 362.3857 188.1474 362.3857 188.1474 362.3857 188.6274 362.0257 189.1074 361.5456L189.9475 360.5856 189.7075 359.5055C188.5074 354.345 185.1471 349.6646 180.9467 346.5444 180.8267 346.5444 181.0667 346.9044 181.3068 347.2644ZM204.2271 347.8645C208.0674 343.064 213.5879 339.9438 219.4684 339.1037 221.1485 338.8637 224.6288 338.8637 226.189 338.9837 238.7901 340.5438 249.831 350.1446 256.0716 360.9456 263.8722 374.5068 265.1923 390.4681 259.4318 401.9891 255.5915 410.0298 248.7509 415.0703 240.4702 416.1504 238.55 416.3904 233.9896 416.2704 232.0695 415.9103 218.7483 413.3901 206.2672 401.6291 200.5067 386.2678 195.2263 371.9866 196.6664 357.1053 204.2271 347.8645ZM233.3896 389.508C234.4697 390.3481 235.4298 390.8282 236.1498 390.8282 236.8699 390.8282 237.4699 390.3481 237.83 389.508 238.19 388.788 238.19 388.668 238.19 386.6278 238.19 380.7473 234.3497 372.7066 230.2693 368.6263 228.8292 367.3061 227.8691 366.466 226.789 366.106 224.8689 365.266 223.7888 366.466 223.5487 369.2263 223.1887 375.4668 228.2291 385.9078 233.3896 389.508ZM212.2678 385.6677C213.7079 391.7883 217.7882 399.1089 223.3087 405.3494 224.0288 406.3095 224.8689 407.1496 224.9889 407.2696 225.2289 407.3896 225.7089 407.1496 227.5091 405.9495 227.5091 405.9495 226.669 404.8694 225.3489 403.5493 219.8284 397.7888 215.388 391.7883 213.3479 387.1078 212.9878 386.5078 212.6278 385.5477 212.3878 384.8277 211.7877 383.5076 211.7877 383.7475 212.2678 385.6677ZM238.19 351.3448C241.5503 354.8251 244.1905 359.1454 245.0306 362.8658L245.3906 363.8259H245.8707C246.1107 363.9458 246.5907 363.8259 246.8308 363.8259 247.4308 363.7058 247.4308 363.5858 247.0708 362.0257 245.9907 356.5052 242.7504 351.9448 238.6701 350.3847 238.07 350.1446 237.4699 349.9046 237.2299 349.9046 236.6299 349.7846 236.7499 349.7846 238.19 351.3448ZM257.9895 345.3442C259.4296 336.9435 263.0299 332.1431 268.4304 331.063 269.6305 330.823 271.9107 330.823 273.3509 331.183 280.0714 332.6232 288.1121 338.6236 296.8729 348.9446 300.5932 353.2649 301.0732 353.985 302.6334 357.9453 305.3936 365.0259 306.5937 370.9064 306.3537 375.8269 306.2337 379.7872 304.9136 382.5475 302.6334 383.6275 301.4332 384.1076 299.7531 384.2276 298.193 383.8676 293.3926 382.4274 287.512 377.027 281.9916 368.6263 281.2715 367.4261 280.5515 366.466 280.5515 366.466 280.4314 366.3461 281.2715 369.2263 283.1917 376.1869 284.3918 380.3873 285.9519 385.3077 287.512 389.9881 291.5924 402.1091 293.1525 407.2696 293.7526 410.1498 293.9926 410.9899 294.1126 411.5899 294.2326 411.83 294.2326 411.95 294.4727 412.9101 294.7127 413.8702 294.8327 414.8302 295.1927 416.0303 295.1927 416.5104 295.5528 418.0705 295.6727 419.6307 295.4328 420.8308 295.3127 421.6708 295.1927 422.2709 294.5927 423.591 292.7925 426.9513 290.0323 428.7514 286.1919 428.7514 284.6318 428.7514 283.7917 428.5114 281.8716 427.5513 268.0704 419.6307 260.2697 383.9876 258.1095 368.3862 257.5095 363.7058 257.3895 361.3056 257.2694 356.5052 257.1494 351.4648 257.3895 348.5845 257.9895 345.3442ZM275.151 405.4694C276.3511 411.35 279.9514 416.6304 284.6318 419.5107L285.1118 419.7507 285.5919 418.5506C285.7119 417.9505 285.8319 417.3504 285.8319 417.2305 285.8319 417.1105 285.4719 416.8704 285.1118 416.6304 281.3915 414.4702 277.0712 408.9498 275.391 404.1493 275.151 403.5493 275.031 403.0692 274.911 403.0692 274.791 403.0692 274.911 404.2693 275.151 405.4694ZM294.1126 358.9054C295.7928 361.5456 297.3529 365.386 298.073 368.5062L298.313 369.8263 299.5131 369.2263C300.1131 368.8663 300.7132 368.5062 300.7132 368.3862 300.8332 368.1462 298.913 364.6659 297.953 363.2258 296.9929 361.5456 295.4328 359.7455 294.1126 358.4254L293.3926 357.7053 294.1126 358.9054ZM304.9119 365.626C306.472 354.105 311.2724 342.944 320.7533 335.9834 322.6734 334.6633 325.0736 333.7032 327.3538 333.4632 330.7141 332.8631 333.7144 333.4632 336.1146 335.0234 340.435 337.7836 341.515 343.064 339.1148 348.1045 337.9148 350.3847 335.9946 352.5448 333.7144 353.985 331.9142 355.1851 331.6742 355.4251 330.7141 356.6252 328.794 358.7854 326.5138 362.8658 326.2737 365.746L326.1537 366.9461H326.5138C327.7139 366.9461 329.514 364.7859 332.6343 359.3855 335.1545 355.1851 340.435 348.5845 345.5954 348.1045 348.1156 347.8645 350.8759 349.3046 351.5959 351.1047 352.196 352.3049 352.316 354.585 352.0759 358.7854 351.956 362.1457 351.836 369.9464 351.956 370.1864 352.0759 370.1864 352.0759 374.1467 352.196 378.7071 352.316 387.9479 352.556 390.5881 353.1561 393.1084 353.2761 393.9484 353.6361 395.0285 353.8761 395.5086 354.3562 396.2286 354.3562 396.3486 354.8362 396.4687 355.4362 396.4687 355.6763 395.9886 356.0363 394.5485 356.8764 391.3082 356.9964 386.8678 356.3963 380.6273 355.5563 369.2263 354.7162 361.9057 353.8761 356.1452 353.5161 354.465 353.5161 353.5049 353.5161 350.2647 353.5161 346.0643 353.6361 345.3442 354.3562 342.824 355.6763 339.2237 358.1965 334.9033 362.6369 334.9033 364.6771 334.9033 367.3173 335.9834 368.9974 337.5436 369.5975 338.1436 370.1975 338.6236 370.4376 338.7437 370.9176 338.8637 372.2377 340.5438 373.3178 342.224 377.5181 348.7045 380.2784 357.4653 381.3585 367.9062 381.5985 371.0265 381.7185 379.0672 381.3585 381.9474 380.2784 396.9487 372.7177 421.1908 356.3963 424.4311 354.9562 424.6711 352.436 424.6711 350.8759 424.4311 338.8748 422.3909 332.3942 407.0296 330.2341 396.3486 329.874 394.7885 329.634 393.7084 329.514 393.7084 329.514 393.8284 329.034 394.0685 328.5539 394.3085 325.5537 396.4687 322.0734 397.4288 318.9531 397.0687 311.3924 396.1086 305.992 388.308 304.6719 376.5469 304.4318 374.0267 304.5518 368.0262 304.9119 365.626ZM314.2727 382.3074C315.1128 384.2276 314.9928 384.1076 316.1929 382.7875L317.273 381.5874 317.0329 380.9873C316.7929 380.6273 316.4329 379.7872 316.1929 379.1872 314.3927 374.5068 313.9127 368.1462 314.9928 362.7457 315.2328 361.9057 315.3528 361.1856 315.3528 361.1856 315.2328 361.0656 314.5127 362.2657 314.0327 363.2258 311.3924 368.6263 311.3924 376.4269 314.2727 382.3074ZM338.8748 402.1091C339.8349 406.6695 341.395 410.0298 343.6753 413.1501 344.6353 414.5902 346.1955 416.1504 346.3154 415.9103 346.4355 415.9103 346.7955 415.1903 347.0355 414.3502L347.6356 413.0301 345.5954 410.9899C343.1952 408.5897 341.515 405.9495 339.5949 403.1893 339.2349 402.4692 338.8748 401.9891 338.8748 402.1091ZM370.3175 352.0648C370.3175 352.0648 370.6776 352.7849 371.0376 353.625 371.7576 355.0651 373.7978 360.5856 373.7978 362.1457 373.9179 362.1457 374.8779 360.5856 375.1179 359.6255 375.238 359.1454 375.238 359.1454 374.3979 357.4653 373.9179 356.6252 373.1978 355.3051 372.7177 354.7051 371.7576 353.5049 370.1975 351.8248 370.3175 352.0648ZM381.3557 348.3445C383.0358 347.2644 385.196 346.7843 387.4762 347.0244 389.0364 347.2644 390.3565 347.6244 391.9166 348.4645L393.2367 349.0646 393.7168 348.4645C397.6771 343.5441 403.1976 340.5438 409.5581 339.5837 411.2383 339.3437 414.5986 339.3437 416.3987 339.5837 429.9599 340.9039 440.8808 351.2247 446.0413 363.2258 447.1214 365.986 447.4814 367.3061 447.4814 369.5863 447.4814 372.1066 446.7614 373.9067 445.4412 375.3468 443.8811 376.787 442.081 377.387 439.5608 377.267 434.4003 377.267 429.3599 373.0666 426.3596 369.3463 423.4793 365.626 418.1989 363.1058 413.5185 362.8658 412.3184 362.7457 410.8783 362.8658 411.2383 363.1058 411.3583 363.1058 412.1984 363.3458 413.0384 363.7058 418.1989 365.1459 428.0398 371.3865 428.0398 377.507 428.0398 381.1073 424.9195 382.1874 421.6792 382.1874 418.6789 382.1874 414.3585 380.9873 411.2383 379.1872 410.7583 378.9471 410.2782 378.7071 410.2782 378.7071 410.1582 378.7071 410.2782 379.0672 410.5182 379.4272 411.5983 381.7074 414.8386 383.7475 417.1188 384.5876L418.3189 385.0677H422.0392C426.1196 385.0677 426.7196 385.1877 428.9998 385.9078 434.4003 387.7079 438.7207 391.9082 440.0408 396.8287 440.4008 398.0288 440.2808 400.789 440.0408 401.9891 438.6007 407.3896 433.3202 409.9098 428.1597 409.9098 414.8386 409.9098 402.2375 397.7888 396.477 386.6278 393.2367 380.5073 391.6766 374.6268 391.3165 368.2662L391.1966 366.3461 389.9964 366.2261C385.076 365.746 380.1556 361.7857 378.5955 356.9852 377.5154 353.625 378.5955 350.1446 381.3557 348.3445ZM428.5198 354.7051C432.4801 358.7854 435.8404 362.9858 437.2805 365.986 437.8806 367.0661 437.8806 367.0661 438.8407 367.4261 439.4407 367.7862 439.9208 367.9062 440.0408 367.9062 440.1608 367.6662 439.2007 365.1459 438.3606 363.4658 436.0804 359.0254 432.0001 355.0651 428.0398 353.2649 426.2396 352.4248 426.2396 352.4248 428.5198 354.7051ZM409.6782 392.1483C411.5983 395.6286 415.3186 399.7089 418.1989 401.029L418.919 401.3891 419.399 400.789C419.759 400.549 419.999 400.189 419.999 400.189 419.999 400.069 419.519 399.829 418.919 399.5889 416.7587 398.5088 413.8785 396.1086 411.2383 393.1084 410.5182 392.1483 409.6782 391.1882 409.4381 390.9482 409.0781 390.5881 408.9581 390.3481 408.9581 390.4681 408.9581 390.5881 409.3181 391.3082 409.6782 392.1483ZM446.3989 369.3463C447.479 356.6252 451.9194 334.0633 466.9207 331.063 467.5208 330.943 468.1208 330.823 468.2408 330.823 468.9609 330.703 471.8411 330.943 472.9212 331.183 477.6016 332.1431 482.2821 335.1434 486.8424 339.8238L488.2826 341.2639H488.8826C489.6027 341.1439 492.2429 341.3839 493.323 341.6239 499.5636 342.944 505.564 348.1045 508.9243 353.5049 516.245 364.4259 517.3251 379.0672 511.4446 387.9479 508.3243 392.7483 503.7639 395.2685 498.3634 395.2685 494.8831 395.2685 491.2828 394.0685 487.8025 391.7883 487.0825 391.4282 486.6024 391.0682 486.6024 391.1882 486.6024 391.1882 486.9625 392.0283 487.3225 392.8683 490.8028 400.789 492.1229 409.5498 490.8028 416.1504 489.4827 422.7509 485.7623 427.1913 480.3619 428.5114 478.8017 428.8714 476.0415 428.8714 474.3613 428.5114 461.1602 425.8712 450.7193 410.2699 447.479 397.9088 446.639 394.1885 446.1589 391.4282 446.0389 386.9878 446.0389 385.4277 446.0389 383.1475 445.9189 381.9474 445.7989 379.1872 446.0389 372.8266 446.3989 369.3463ZM472.6812 360.8256C472.8012 364.5459 480.2419 370.0664 486.8424 371.5065 488.7626 371.8665 490.8028 371.8665 491.6428 371.3865 492.723 370.9064 493.083 369.9464 492.723 368.7463 491.2828 365.0259 484.3222 360.2255 478.5617 359.0254 474.8414 358.3053 472.6812 359.0254 472.6812 360.8256ZM462.8404 389.028C464.5205 393.2284 467.2808 397.4288 468.9609 398.2688 469.3209 398.5088 469.4409 398.5088 469.681 398.2688 470.041 397.9088 469.921 395.6286 469.4409 393.8284 468.6009 390.5881 465.4806 383.1475 462.3603 381.2273 461.7603 380.9873 461.6403 380.9873 461.4002 381.5874 461.0402 382.7875 461.6403 386.0278 462.8404 389.028ZM456.1198 394.4285 456.2398 395.7486C456.5998 401.029 458.76 406.5495 461.5203 410.9899 463.0804 413.2701 465.4806 415.9103 465.7206 415.5503 465.9607 415.3103 466.0806 412.55 466.0806 412.07 466.2006 411.83 465.8406 411.35 464.8805 410.3899 463.2004 408.5897 462.3603 407.5096 461.4002 406.0695 459.6001 402.9492 457.9199 399.4689 456.7198 395.9886L456.1198 394.4285ZM499.4435 358.0654C501.3637 362.1457 502.4438 367.6662 502.0838 371.9866 501.9638 372.9466 501.8437 374.0267 501.8437 374.2667 501.7237 374.8668 501.8437 374.9868 502.9238 376.1869 503.5239 377.027 504.0039 377.627 504.1239 377.627 504.364 377.627 504.724 376.0669 504.844 374.5068 505.4441 369.5863 503.2839 362.6257 499.8035 357.9453 499.3235 357.3453 498.9635 356.7452 498.9635 356.7452 498.8435 356.7452 499.0835 357.3453 499.4435 358.0654ZM511.5622 349.4246C512.2822 344.3841 515.5225 342.104 520.3229 342.104 522.6031 342.104 523.9232 342.344 526.0834 343.1841L527.0435 343.6641 527.7636 342.464C530.4038 338.6236 534.9642 335.5034 539.5246 334.5433 540.1247 334.4233 541.2047 334.4233 542.6449 334.4233 548.5253 334.4233 551.7656 338.0236 551.7656 343.5441 551.6457 346.1843 550.9256 348.3445 549.3654 350.5047 549.0054 351.1047 548.7654 351.4648 548.7654 351.5848 548.7654 351.5848 549.2454 351.4648 549.9655 351.3448 551.2856 350.9847 552.8457 350.8647 554.4059 350.8647 562.2066 350.8647 573.0075 355.5451 576.6078 362.9858 579.008 367.9062 577.2078 372.3466 572.0474 374.1467 570.1272 374.7468 568.5671 374.9868 565.8068 374.8668 562.4466 374.7468 559.5663 374.1467 556.4461 372.8266 555.846 372.5866 555.366 372.4666 555.366 372.5866 555.366 372.5866 555.606 372.8266 555.846 373.0666 561.0064 380.3873 565.3268 389.9881 567.127 398.7489 571.0873 417.1105 566.6469 431.5117 556.206 434.2719 554.6459 434.752 551.1656 434.752 549.4854 434.392 536.1643 431.3917 526.2035 416.2704 521.283 404.1493 519.0028 398.3888 517.5627 392.6283 516.8426 386.5078 516.4826 383.6275 516.4826 377.7471 516.8426 375.3468 517.3227 371.9866 518.0427 368.9863 519.1228 366.7061L519.4829 365.866 517.9227 364.1859C513.4823 359.5055 511.0821 354.105 511.5622 349.4246ZM537.2444 390.8282C538.0845 394.4285 542.7649 406.7895 547.2052 406.7895 548.0453 406.7895 548.6454 406.0695 548.6454 404.6294 548.6454 400.549 545.5251 393.4684 541.0847 387.4679 540.4846 386.5078 538.9245 384.4676 537.6044 382.9075 535.6842 380.5073 535.2042 380.0272 535.2042 380.2673 535.2042 381.4674 536.4043 387.5879 537.2444 390.8282ZM541.8048 421.5508C542.6449 421.6708 542.7649 421.4308 542.6449 420.4707 542.5249 419.5107 541.6848 417.2305 541.4447 416.8704 541.3247 416.7504 540.7247 416.2704 540.0047 415.7903 535.6842 413.1501 531.9639 409.0697 529.5637 404.3893 529.2037 403.5493 528.6037 402.4692 528.4837 402.1091 528.3636 401.6291 528.1236 401.3891 528.1236 401.5091 528.1236 407.0296 535.8043 420.8308 541.8048 421.5508ZM565.2068 360.2255C566.1669 362.0257 567.607 365.986 568.0871 368.2662 568.327 369.3463 568.5671 369.7063 569.0471 369.7063 569.5272 369.7063 570.3673 369.2263 570.9673 368.7463 571.3274 368.5062 571.3274 368.2662 571.3274 367.9062 571.3274 364.5459 568.5671 361.5456 565.8068 359.8655 565.3268 359.6255 564.8468 359.3855 564.8468 359.3855 564.7268 359.3855 564.9668 359.7455 565.2068 360.2255ZM582.006 347.8645C585.8463 343.064 591.3668 339.9438 597.2473 339.1037 598.9275 338.8637 602.4078 338.8637 603.9679 338.9837 616.569 340.5438 627.61 350.1446 633.8505 360.9456 641.6512 374.5068 642.9713 390.4681 637.2108 401.9891 633.3705 410.0298 626.5299 415.0703 618.2492 416.1504 616.329 416.3904 611.7686 416.2704 609.8484 415.9103 596.5273 413.3901 584.0462 401.6291 578.2857 386.2678 573.0053 371.9866 574.4454 357.1053 582.006 347.8645ZM611.1685 389.508C612.2487 390.3481 613.2088 390.8282 613.9288 390.8282 614.6488 390.8282 615.2489 390.3481 615.6089 389.508 615.969 388.788 615.969 388.668 615.969 386.6278 615.969 380.7473 612.1286 372.7066 608.0483 368.6263 606.6082 367.3061 605.6481 366.466 604.568 366.106 602.6478 365.266 601.5677 366.466 601.3277 369.2263 600.9677 375.4668 606.0081 385.9078 611.1685 389.508ZM590.0467 385.6677C591.4868 391.7883 595.5672 399.1089 601.0877 405.3494 601.8078 406.3095 602.6478 407.1496 602.7678 407.2696 603.0078 407.3896 603.4879 407.1496 605.288 405.9495 605.288 405.9495 604.448 404.8694 603.1278 403.5493 597.6074 397.7888 593.167 391.7883 591.1269 387.1078 590.7668 386.5078 590.4068 385.5477 590.1668 384.8277 589.5667 383.5076 589.5667 383.7475 590.0467 385.6677ZM615.969 351.3448C619.3292 354.8251 621.9695 359.1454 622.8096 362.8658L623.1696 363.8259H623.6496C623.8897 363.9458 624.3697 363.8259 624.6097 363.8259 625.2097 363.7058 625.2097 363.5858 624.8498 362.0257 623.7697 356.5052 620.5294 351.9448 616.449 350.3847 615.849 350.1446 615.2489 349.9046 615.0089 349.9046 614.4088 349.7846 614.5288 349.7846 615.969 351.3448ZM639.6088 377.867C641.8889 374.9868 644.2892 373.9067 647.2894 374.6268 655.2101 376.4269 662.4107 389.388 665.171 396.7087 665.651 397.6687 666.0111 398.6288 666.0111 398.6288 666.1311 398.6288 666.9712 389.6281 667.2111 386.7478 667.2111 385.4277 667.4512 382.7875 667.6912 380.6273 668.1712 374.2667 669.6113 362.3857 673.5717 357.1053 675.9719 353.625 680.4123 349.7846 684.6127 348.8245 686.1728 348.4645 688.453 348.8245 689.8931 349.5446 690.9732 350.1446 693.1334 352.0648 694.0935 353.1449 697.2138 356.9852 698.8939 363.5858 698.4138 370.7864 698.0539 379.0672 694.9336 389.148 691.4533 396.7087 689.0531 401.8691 687.9729 404.7494 686.7728 408.5897 686.2928 410.3899 686.2928 410.9899 686.7728 411.2299 688.213 411.95 694.0935 413.1501 696.1337 413.6301 702.0142 414.7102 709.6948 416.9904 712.8151 418.4306 718.2156 421.1908 722.0559 425.8712 722.5359 430.3116 722.656 431.7517 722.4159 433.6719 722.0559 434.992 721.6959 436.1921 720.3758 438.9523 719.4157 440.2724 718.2156 442.1926 716.6554 443.1527 713.5352 444.2328 711.255 444.9529 709.4548 445.1929 705.3745 445.0729 693.1334 444.8328 681.7324 439.5524 671.4115 433.4319 665.531 429.8315 656.0502 423.1109 651.6098 419.2706 643.6891 412.07 636.1284 401.6291 635.7685 390.4681 635.7685 386.2678 637.0885 381.2273 639.6088 377.867ZM644.5292 395.3886C644.8892 397.7888 645.8493 401.029 646.5694 402.9492 647.2894 404.6294 648.8496 407.2696 649.4496 407.5096 649.5696 407.6296 650.0497 407.8696 650.2897 408.1097 651.1298 408.4697 651.4898 408.5897 651.9699 408.1097 652.2099 407.8696 652.3299 407.6296 652.3299 407.1496 652.4498 406.0695 651.7298 404.5094 649.5696 400.909 648.4895 399.2289 647.2894 397.3087 647.0494 396.7087 646.4494 395.5086 645.7293 393.4684 645.3693 391.6683 645.1292 391.0682 645.0092 389.9881 644.8892 389.268L644.6492 388.0679 644.5292 388.908C644.2892 390.1081 644.2892 393.5884 644.5292 395.3886ZM685.8128 359.7455C686.8928 363.2258 687.4929 366.8261 687.8529 371.2665 687.9729 374.6268 688.213 376.5469 688.333 376.787 688.573 377.147 689.5331 375.5868 690.0131 374.0267 690.3732 372.5866 690.3732 369.2263 690.0131 367.7862 689.5331 365.746 687.9729 362.2657 686.7728 360.5856 686.4128 360.1055 686.0528 359.6255 685.9328 359.3855L685.6928 359.0254 685.8128 359.7455ZM706.8119 348.5845C707.772 344.7442 710.6522 342.584 713.8925 342.584 715.3327 342.584 716.7728 342.944 718.2129 343.9041 718.693 344.2641 719.053 344.5042 719.053 344.5042 720.3731 340.5438 722.5333 335.6234 726.8537 334.1833 728.4138 333.7032 730.454 333.9433 731.7741 334.7833 734.8944 336.3435 736.6945 341.0238 737.4146 344.2641 737.7746 346.3043 738.0147 349.7846 737.7746 351.5848 737.7746 352.4248 737.7746 353.1449 737.7746 353.1449 737.8946 353.2649 750.4957 357.7053 750.6157 357.7053 750.6157 357.7053 750.7357 357.3453 750.8557 356.8652 751.0958 355.4251 751.9358 352.1848 752.4159 350.5047 755.1761 341.5039 759.4965 336.5835 763.6969 337.3035 772.4576 338.5036 774.9778 359.2654 775.4579 365.626 775.6979 368.3862 775.6979 377.027 775.4579 379.9072 774.6178 392.2683 771.8576 405.9495 762.6168 414.9502 759.4965 418.0705 756.8563 419.5107 753.856 419.5107 748.5756 419.5107 744.8552 414.3502 743.5351 405.3494 742.9351 401.1491 743.0551 392.9884 743.7752 390.7082 743.8952 390.3481 744.3752 388.788 744.7352 387.3479 745.5753 384.5876 746.1753 382.9075 747.1354 380.5073 747.4954 379.7872 747.7355 379.0672 747.7355 378.9471 747.7355 378.9471 747.6155 378.8271 747.4954 378.8271 745.2152 378.8271 739.0947 376.787 737.2946 375.4668 736.9345 375.2268 736.5745 375.1068 736.5745 375.2268 736.5745 375.3468 736.6945 376.3069 736.8145 377.387 738.7347 388.308 737.8946 398.8689 734.7744 404.9894 733.5742 407.6296 732.0141 409.3098 730.094 410.2699L728.8938 410.8699H727.2137C723.7334 410.8699 720.2531 408.4697 717.7329 406.1895 713.6525 402.4692 711.1323 396.9487 710.1723 389.9881 709.9322 387.9479 710.0522 382.5475 710.2923 380.1473 710.8923 374.9868 712.3324 369.8263 714.4926 364.7859 714.8526 363.9458 715.0927 363.2258 715.0927 363.1058 714.9727 363.1058 714.6126 362.9858 714.1326 362.7457 710.5322 361.5456 707.892 357.8253 706.932 354.225 706.4519 352.6649 706.4519 349.9046 706.8119 348.5845ZM749.6557 404.7494C750.0156 406.0695 750.9757 408.5897 751.0958 408.5897 751.2158 408.5897 753.016 407.1496 753.376 406.7895 753.496 406.6695 753.376 406.3095 752.8959 404.7494 751.6958 401.1491 751.2158 397.7888 750.8557 394.0685L750.7357 391.6683 750.4957 392.3883C749.0556 395.7486 748.6956 400.789 749.6557 404.7494ZM718.453 388.668C718.453 391.7883 719.173 394.6685 720.9732 398.1488L721.9332 400.069H723.0133C723.6134 400.069 724.2135 400.069 724.2135 400.069 724.2135 400.069 723.8534 399.5889 723.4934 398.9889 720.9732 395.3886 719.8931 390.9482 719.8931 386.6278 719.8931 384.8277 720.0131 383.3875 720.1331 383.0275 720.1331 382.6675 720.2531 382.4274 720.1331 382.4274 719.8931 382.4274 719.053 384.3476 718.693 385.6677 718.453 386.6278 718.453 387.2279 718.453 388.668ZM774.9755 348.3445C776.6556 347.2644 778.8158 346.7843 781.096 347.0244 782.6561 347.2644 783.9762 347.6244 785.5364 348.4645L786.8565 349.0646 787.3365 348.4645C791.2969 343.5441 796.8173 340.5438 803.1779 339.5837 804.8581 339.3437 808.2183 339.3437 810.0185 339.5837 823.5797 340.9039 834.5006 351.2247 839.661 363.2258 840.7411 365.986 841.1012 367.3061 841.1012 369.5863 841.1012 372.1066 840.3811 373.9067 839.061 375.3468 837.5009 376.787 835.7007 377.387 833.1805 377.267 828.02 377.267 822.9796 373.0666 819.9793 369.3463 817.0991 365.626 811.8186 363.1058 807.1382 362.8658 805.9381 362.7457 804.498 362.8658 804.8581 363.1058 804.978 363.1058 805.8181 363.3458 806.6582 363.7058 811.8186 365.1459 821.6595 371.3865 821.6595 377.507 821.6595 381.1073 818.5392 382.1874 815.299 382.1874 812.2987 382.1874 807.9783 380.9873 804.8581 379.1872 804.378 378.9471 803.898 378.7071 803.898 378.7071 803.778 378.7071 803.898 379.0672 804.138 379.4272 805.218 381.7074 808.4583 383.7475 810.7385 384.5876L811.9386 385.0677H815.659C819.7393 385.0677 820.3394 385.1877 822.6196 385.9078 828.02 387.7079 832.3404 391.9082 833.6605 396.8287 834.0205 398.0288 833.9005 400.789 833.6605 401.9891 832.2204 407.3896 826.94 409.9098 821.7795 409.9098 808.4583 409.9098 795.8573 397.7888 790.0968 386.6278 786.8565 380.5073 785.2963 374.6268 784.9363 368.2662L784.8163 366.3461 783.6162 366.2261C778.6958 365.746 773.7753 361.7857 772.2152 356.9852 771.1352 353.625 772.2152 350.1446 774.9755 348.3445ZM822.1395 354.7051C826.0999 358.7854 829.4602 362.9858 830.9003 365.986 831.5003 367.0661 831.5003 367.0661 832.4604 367.4261 833.0604 367.7862 833.5405 367.9062 833.6605 367.9062 833.7805 367.6662 832.8205 365.1459 831.9804 363.4658 829.7002 359.0254 825.6198 355.0651 821.6595 353.2649 819.8593 352.4248 819.8593 352.4248 822.1395 354.7051ZM803.2979 392.1483C805.218 395.6286 808.9384 399.7089 811.8186 401.029L812.5387 401.3891 813.0188 400.789C813.3788 400.549 813.6188 400.189 813.6188 400.189 813.6188 400.069 813.1388 399.829 812.5387 399.5889 810.3785 398.5088 807.4983 396.1086 804.8581 393.1084 804.138 392.1483 803.2979 391.1882 803.0579 390.9482 802.6978 390.5881 802.5778 390.3481 802.5778 390.4681 802.5778 390.5881 802.9379 391.3082 803.2979 392.1483ZM838.2186 349.4246C838.9387 344.3841 842.179 342.104 846.9794 342.104 849.2595 342.104 850.5797 342.344 852.7399 343.1841L853.7 343.6641 854.42 342.464C857.0602 338.6236 861.6206 335.5034 866.1811 334.5433 866.7811 334.4233 867.8612 334.4233 869.3013 334.4233 875.1818 334.4233 878.4221 338.0236 878.4221 343.5441 878.3021 346.1843 877.582 348.3445 876.0219 350.5047 875.6618 351.1047 875.4218 351.4648 875.4218 351.5848 875.4218 351.5848 875.9019 351.4648 876.6219 351.3448 877.942 350.9847 879.5022 350.8647 881.0623 350.8647 888.863 350.8647 899.6639 355.5451 903.2642 362.9858 905.6644 367.9062 903.8643 372.3466 898.7038 374.1467 896.7837 374.7468 895.2235 374.9868 892.4633 374.8668 889.103 374.7468 886.2227 374.1467 883.1025 372.8266 882.5025 372.5866 882.0224 372.4666 882.0224 372.5866 882.0224 372.5866 882.2624 372.8266 882.5025 373.0666 887.6629 380.3873 891.9832 389.9881 893.7834 398.7489 897.7437 417.1105 893.3034 431.5117 882.8624 434.2719 881.3023 434.752 877.822 434.752 876.1419 434.392 862.8207 431.3917 852.8599 416.2704 847.9395 404.1493 845.6593 398.3888 844.2191 392.6283 843.499 386.5078 843.1391 383.6275 843.1391 377.7471 843.499 375.3468 843.9791 371.9866 844.6992 368.9863 845.7793 366.7061L846.1393 365.866 844.5791 364.1859C840.1388 359.5055 837.7385 354.105 838.2186 349.4246ZM863.9008 390.8282C864.7409 394.4285 869.4213 406.7895 873.8617 406.7895 874.7017 406.7895 875.3018 406.0695 875.3018 404.6294 875.3018 400.549 872.1815 393.4684 867.7412 387.4679 867.1411 386.5078 865.581 384.4676 864.2609 382.9075 862.3407 380.5073 861.8606 380.0272 861.8606 380.2673 861.8606 381.4674 863.0608 387.5879 863.9008 390.8282ZM868.4612 421.5508C869.3013 421.6708 869.4213 421.4308 869.3013 420.4707 869.1813 419.5107 868.3412 417.2305 868.1012 416.8704 867.9812 416.7504 867.3811 416.2704 866.661 415.7903 862.3407 413.1501 858.6204 409.0697 856.2202 404.3893 855.8601 403.5493 855.2601 402.4692 855.14 402.1091 855.02 401.6291 854.78 401.3891 854.78 401.5091 854.78 407.0296 862.4607 420.8308 868.4612 421.5508ZM891.8632 360.2255C892.8233 362.0257 894.2634 365.986 894.7435 368.2662 894.9835 369.3463 895.2235 369.7063 895.7036 369.7063 896.1836 369.7063 897.0237 369.2263 897.6237 368.7463 897.9838 368.5062 897.9838 368.2662 897.9838 367.9062 897.9838 364.5459 895.2235 361.5456 892.4633 359.8655 891.9832 359.6255 891.5032 359.3855 891.5032 359.3855 891.3832 359.3855 891.6232 359.7455 891.8632 360.2255ZM903.142 384.5876C906.2622 377.867 913.5829 374.5068 920.6635 374.5068 924.7439 374.5068 932.5445 374.9868 936.7449 375.8269 940.1052 376.3069 942.3854 375.9469 943.9455 374.8668 944.9056 374.2667 945.2656 373.4267 945.2656 372.2265 945.2656 369.5863 943.1054 367.9062 940.5852 367.4261 939.2651 367.1861 936.9849 367.3061 935.5448 367.6662 933.7446 368.1462 930.1443 369.3463 926.664 370.6664 922.9437 372.1066 920.7835 372.7066 918.2633 373.0666 915.263 373.4267 912.6228 373.1866 910.7027 372.1066 907.7024 370.7864 906.0222 366.5861 905.3021 363.5858 904.9422 361.7857 904.9422 358.7854 905.3021 357.4653 906.0222 353.865 909.1425 350.6247 911.9027 348.3445 916.8231 344.5042 922.5836 342.104 929.4243 341.3839 929.7843 341.3839 931.4644 341.3839 933.2646 341.3839 935.9048 341.3839 936.9849 341.5039 939.0251 341.7439 943.5855 342.584 951.0261 344.9842 954.7465 347.8645 962.6671 353.625 966.1474 361.4256 968.4276 370.7864 969.0277 372.9466 969.0277 373.1866 969.1477 375.7069 969.1477 380.8673 967.9476 384.7076 965.3074 389.028 961.107 395.0285 953.7864 400.069 946.3457 400.069 943.1054 400.069 941.4253 399.829 937.945 398.8689 934.8247 397.9088 932.9046 397.6687 930.7444 397.7888 929.1842 397.9088 928.1041 398.0288 927.3841 398.5088 926.9041 398.7489 926.424 399.2289 926.424 399.4689 926.424 399.829 927.6241 400.909 928.4642 401.3891 930.1443 402.2292 931.3444 402.5892 933.3846 402.7092 939.2651 402.9492 952.4663 404.0293 955.9466 409.5498 957.7467 412.19 958.2268 415.9103 957.1466 418.5506 955.8266 421.7908 951.5062 425.3912 947.5458 426.7113 945.5056 427.3113 943.7055 427.5513 940.3452 427.5513 923.3037 427.5513 910.7027 418.5506 904.3421 403.1893 903.622 401.6291 902.7819 398.8689 902.4219 397.0687 901.5819 392.8683 901.8219 387.2279 903.142 384.5876ZM913.1029 399.949C913.5829 402.4692 915.023 406.7895 916.2231 408.9498 918.0233 412.19 920.9035 415.3103 922.1037 415.3103 922.3436 415.3103 922.5836 415.3103 922.7037 415.4303 922.7037 415.4303 922.9437 415.5503 923.1837 415.5503 923.6638 415.6703 923.7838 415.5503 924.1438 415.1903 924.6239 414.5902 924.6239 414.1102 924.2638 413.5101 923.9038 413.0301 923.3037 412.55 921.3836 411.1099 917.9033 408.4697 915.5031 405.4694 913.8229 401.3891 913.7029 400.909 913.3429 399.949 913.2229 399.2289 912.8628 397.9088 912.7428 398.2688 913.1029 399.949ZM950.6661 356.1452C953.1863 358.7854 954.8665 361.4256 956.5466 365.386 957.2667 366.9461 957.8667 367.9062 958.9468 368.6263 959.6669 369.1063 959.7869 369.1063 959.7869 368.2662 959.7869 364.0658 953.7864 358.0654 950.3061 355.4251L949.466 354.8251 950.6661 356.1452Z" fill="#2d2d2d"/>
</g>
</g>
</svg>
