<svg xmlns="http://www.w3.org/2000/svg" xmlns:xlink="http://www.w3.org/1999/xlink" xmlns:inkscape="http://www.inkscape.org/namespaces/inkscape" version="1.1" width="508.1128" height="251.90509" viewBox="0 0 508.1128 251.90509">
<defs>
<clipPath id="clip_0">
<path transform="matrix(1,0,0,-1,-258.1236,490.0511)" d="M258.1236 238.146H766.2364V490.0511H258.1236Z" clip-rule="evenodd"/>
</clipPath>
<clipPath id="clip_1">
<path transform="matrix(1,0,0,-1,-258.1236,490.0511)" d="M269.334 387.039H334.458V428.204H269.334Z"/>
</clipPath>
<clipPath id="clip_2">
<path transform="matrix(1,0,0,-1,-258.1236,490.0511)" d="M347.29 357.893H738.117V487.661H347.29Z"/>
</clipPath>
<clipPath id="clip_3">
<path transform="matrix(1,0,0,-1,-258.1236,490.0511)" d="M259.79 241.044H764.12307V354.854H259.79Z"/>
</clipPath>
</defs>
<g clip-path="url(#clip_0)">
<g clip-path="url(#clip_1)">
<path transform="matrix(1,0,0,-1,-258.1236,490.0511)" d="M269.8941 393.319C270.4264 389.8305 271.757 387.8371 273.753 387.3886 274.1965 387.2889 275.0392 387.2889 275.5715 387.4384 278.0554 388.0365 281.0272 390.5282 284.265 394.8141 285.64 396.6081 285.8175 396.9071 286.3941 398.5517 287.4142 401.492 287.8578 403.9339 287.7691 405.9771 287.7247 407.6217 287.2368 408.7679 286.3941 409.2164 285.9505 409.4158 285.3296 409.4656 284.753 409.3161 282.9788 408.7181 280.8054 406.4755 278.765 402.987 278.4989 402.4887 278.2328 402.09 278.2328 402.09 278.1884 402.0402 278.4989 403.2362 279.2086 406.1266 279.6522 407.8709 280.2288 409.9141 280.8054 411.8577 282.3134 416.8911 282.89 419.034 283.1118 420.23 283.2005 420.5789 283.2449 420.828 283.2892 420.9277 283.2892 420.9775 283.378 421.3762 283.4667 421.7749 283.511 422.1736 283.6441 422.6719 283.6441 422.8713 283.7772 423.5191 283.8215 424.167 283.7328 424.6653 283.6884 425.0142 283.6441 425.2634 283.4223 425.8116 282.757 427.2069 281.7368 427.9545 280.3175 427.9545 279.7409 427.9545 279.4304 427.8548 278.7207 427.4561 273.6199 424.167 270.7368 409.3659 269.9384 402.8874 269.7167 400.9438 269.6723 399.9471 269.628 397.9537 269.5836 395.8606 269.6723 394.6646 269.8941 393.319ZM276.2368 418.2864C276.6804 420.7284 278.011 422.9211 279.7409 424.1172L279.9183 424.2168 280.0957 423.7185C280.14 423.4693 280.1844 423.2201 280.1844 423.1703 280.1844 423.1205 280.0514 423.0208 279.9183 422.9211 278.5433 422.0241 276.9465 419.7317 276.3255 417.7383 276.2368 417.4891 276.1925 417.2897 276.1481 417.2897 276.1038 417.2897 276.1481 417.7881 276.2368 418.2864ZM283.2449 398.9504C283.8658 400.0468 284.4425 401.6415 284.7086 402.9372L284.7973 403.4854 285.2408 403.2362C285.4626 403.0867 285.6844 402.9372 285.6844 402.8874 285.7288 402.7877 285.0191 401.3425 284.6642 400.7444 284.3094 400.0468 283.7328 399.2992 283.2449 398.751L282.9788 398.452 283.2449 398.9504ZM289.41 394.3655C290.8293 392.3721 292.8697 391.0764 295.0431 390.7276 295.664 390.6279 296.9503 390.6279 297.5269 390.6777 302.1842 391.3256 306.2648 395.3124 308.5713 399.7976 311.4543 405.429 311.9422 412.057 309.8132 416.8412 308.3939 420.1802 305.8656 422.2733 302.8051 422.7218 302.0955 422.8214 300.41 422.7716 299.7003 422.6221 294.7769 421.5756 290.164 416.6917 288.035 410.3128 286.0834 404.3824 286.6157 398.2029 289.41 394.3655ZM300.1882 411.6584C300.5874 412.0072 300.9422 412.2065 301.2084 412.2065 301.4745 412.2065 301.6963 412.0072 301.8293 411.6584 301.9624 411.3593 301.9624 411.3095 301.9624 410.4623 301.9624 408.0204 300.5431 404.6814 299.035 402.987 298.5027 402.4388 298.1479 402.09 297.7487 401.9405 297.039 401.5916 296.6398 402.09 296.5511 403.2362 296.4181 405.8276 298.2809 410.1633 300.1882 411.6584ZM292.3818 410.0636C292.914 412.6052 294.4221 415.6452 296.4624 418.2366 296.7285 418.6353 297.039 418.9841 297.0834 419.034 297.1721 419.0838 297.3495 418.9841 298.0148 418.4858 298.0148 418.4858 297.7043 418.0373 297.2164 417.4891 295.1761 415.097 293.535 412.6052 292.781 410.6617 292.6479 410.4125 292.5148 410.0138 292.4261 409.7148 292.2043 409.1666 292.2043 409.2663 292.3818 410.0636ZM301.9624 395.8108C303.2043 397.256 304.1801 399.05 304.4906 400.5949L304.6237 400.9936H304.8011C304.8898 401.0435 305.0672 400.9936 305.1559 400.9936 305.3777 400.9438 305.3777 400.894 305.2447 400.2461 304.8455 397.9537 303.6479 396.0599 302.1398 395.4121 301.9181 395.3124 301.6963 395.2127 301.6076 395.2127 301.3858 395.1629 301.4301 395.1629 301.9624 395.8108ZM309.8129 409.6151C310.9662 406.8243 313.6718 405.429 316.2887 405.429 317.7968 405.429 320.6798 405.6283 322.2323 405.9771 323.4742 406.1765 324.317 406.027 324.8936 405.5785 325.2484 405.3293 325.3815 404.9804 325.3815 404.4821 325.3815 403.3857 324.5831 402.688 323.6516 402.4887 323.1637 402.389 322.321 402.4388 321.7887 402.5883 321.1234 402.7877 319.7928 403.286 318.5065 403.8342 317.1315 404.4323 316.3331 404.6814 315.4016 404.8309 314.2928 404.9804 313.317 404.8808 312.6073 404.4323 311.4984 403.8841 310.8774 402.1398 310.6113 400.894 310.4782 400.1464 310.4782 398.9005 310.6113 398.3524 310.8774 396.8573 312.0307 395.5117 313.0508 394.5649 314.8694 392.9702 316.9984 391.9734 319.5266 391.6744 319.6597 391.6744 320.2807 391.6744 320.946 391.6744 321.9218 391.6744 322.321 391.7243 323.075 391.8239 324.7605 392.1728 327.5105 393.1695 328.8855 394.3655 331.8129 396.7576 333.0992 399.9969 333.9419 403.8841 334.1637 404.7811 334.1637 404.8808 334.2081 405.9273 334.2081 408.0702 333.7645 409.6649 332.7887 411.459 331.2363 413.9508 328.5306 416.0439 325.7806 416.0439 324.5831 416.0439 323.9621 415.9442 322.6758 415.5455 321.5226 415.1468 320.8129 415.0471 320.0145 415.097 319.4379 415.1468 319.0387 415.1967 318.7726 415.396 318.5952 415.4957 318.4178 415.695 318.4178 415.7947 318.4178 415.9442 318.8613 416.3927 319.1718 416.592 319.7928 416.9409 320.2363 417.0904 320.9903 417.1402 323.1637 417.2399 328.0428 417.6884 329.329 419.9808 329.9944 421.0772 330.1718 422.6221 329.7726 423.7185 329.2847 425.064 327.6879 426.5591 326.2242 427.1073 325.4701 427.3564 324.8048 427.4561 323.5629 427.4561 317.2645 427.4561 312.6073 423.7185 310.2565 417.3396 309.9904 416.6917 309.6799 415.5455 309.5468 414.798 309.2363 413.0537 309.325 410.7115 309.8129 409.6151ZM313.4944 415.994C313.6718 417.0406 314.204 418.8346 314.6476 419.7317 315.3129 421.0772 316.3774 422.3729 316.821 422.3729 316.9097 422.3729 316.9984 422.3729 317.0428 422.4228 317.0428 422.4228 317.1315 422.4726 317.2202 422.4726 317.3976 422.5224 317.442 422.4726 317.575 422.3231 317.7524 422.0739 317.7524 421.8746 317.6194 421.6254 317.4863 421.4261 317.2645 421.2267 316.5548 420.6287 315.2686 419.5323 314.3815 418.2864 313.7605 416.592 313.7162 416.3927 313.5831 415.994 313.5387 415.695 313.4057 415.1468 313.3613 415.2963 313.4944 415.994ZM327.3774 397.8042C328.3089 398.9005 328.9298 399.9969 329.5508 401.6415 329.8169 402.2893 330.0387 402.688 330.4379 402.987 330.704 403.1864 330.7484 403.1864 330.7484 402.8375 330.7484 401.0933 328.5306 398.6015 327.2444 397.5052L326.9339 397.256 327.3774 397.8042Z" fill="#2d2d2d"/>
</g>
<g clip-path="url(#clip_2)">
<path transform="matrix(1,0,0,-1,-258.1236,490.0511)" d="M347.5396 399.6484C347.8564 384.1236 354.8268 364.0046 372.7279 362.1036 393.7973 362.1036 405.2033 383.8067 407.5795 402.1831 407.8964 404.7177 408.3716 412.6386 408.2132 413.7475 407.8964 415.9653 406.629 418.5 405.0449 419.6089 403.4607 420.8762 401.5597 421.6683 399.5003 421.6683 394.9062 421.6683 390.4705 418.5 387.1438 415.4901 382.7081 410.896 379.8566 404.2425 380.3319 399.1731 380.4903 398.3811 380.3319 398.0642 380.1735 397.4306 379.6982 396.6385 379.0645 396.1632 377.6388 396.1632 376.0546 396.1632 375.4209 396.9553 374.7873 399.9652 374.1536 402.8167 374.312 410.5792 375.2625 416.4406 376.3714 422.4604 377.7972 426.5792 380.1735 430.2228 381.5992 432.1238 383.6586 434.8169 383.9755 434.8169 384.1339 434.8169 384.2923 434.5001 384.2923 434.1833 384.2923 429.5892 390.7874 422.6188 395.8567 422.6188 397.2825 422.6188 397.5993 422.7772 398.7082 423.2525 401.4013 424.6782 403.7775 428.6387 403.7775 431.6486 405.0449 435.4506 405.837 440.0447 405.9954 444.3219 406.629 452.4012 405.0449 459.3715 401.5597 463.8072 399.8171 466.025 397.7577 467.4508 395.0646 468.4013 393.9557 468.7181 393.1636 468.8765 391.421 468.8765 387.9359 469.0349 384.926 468.2429 380.9655 466.3419 366.0744 458.8963 351.8169 436.4011 348.9654 415.9653 348.8069 414.5396 348.4901 412.4802 348.3317 411.5297 347.5396 406.9356 347.5396 404.8762 347.5396 399.6484ZM365.5991 430.5397 365.7575 431.3317C366.3912 436.2427 369.5595 442.2625 372.5694 446.2229 374.4704 448.5992 379.3814 453.1933 380.1735 453.1933 380.1735 453.1933 380.6487 452.4012 380.9655 451.4507L381.7576 449.5497 380.1735 448.4408C376.6883 445.9061 372.0942 440.6783 368.9259 436.0843 368.1338 434.9753 367.1833 433.2328 366.5496 432.2823L365.5991 430.5397ZM386.5101 379.8463C389.0448 383.9651 392.3715 391.0939 394.431 397.2721 394.9062 398.6979 395.3815 399.8068 395.5399 399.8068 395.5399 399.8068 396.1735 399.3316 396.8072 398.6979L397.9161 397.4306 397.5993 396.0048C396.0151 389.1929 391.5795 383.0146 386.0349 378.8958 385.8765 378.8958 386.1933 379.3711 386.5101 379.8463ZM416.7655 380.6384C421.8349 374.3017 429.122 370.1829 436.8844 369.074 439.1023 368.7571 443.6964 368.7571 445.7558 368.9156 462.3895 370.975 476.9639 383.6483 485.2016 397.9058 495.4986 415.8069 497.2412 436.8763 489.6372 452.0843 484.5679 462.6983 475.5381 469.3518 464.6074 470.7775 462.0727 471.0944 456.0529 470.9359 453.5182 470.4607 435.9339 467.1339 419.4586 451.6091 411.8546 431.3317 404.8843 412.4802 406.7853 392.8365 416.7655 380.6384ZM455.2608 435.609C456.6865 436.7179 457.9539 437.3516 458.9044 437.3516 459.8549 437.3516 460.647 436.7179 461.1222 435.609 461.5975 434.6585 461.5975 434.5001 461.5975 431.807 461.5975 424.0446 456.5281 413.4307 451.142 408.0445 449.241 406.3019 447.9736 405.193 446.5479 404.7177 444.0132 403.6088 442.5875 405.193 442.2706 408.8366 441.7954 417.0742 448.4489 430.8565 455.2608 435.609ZM427.3794 430.5397C429.2804 438.6189 434.6666 448.2823 441.9538 456.52 442.9043 457.7873 444.0132 458.8963 444.1716 459.0547 444.4885 459.2131 445.1221 458.8963 447.4984 457.3121 447.4984 457.3121 446.3895 455.8863 444.6469 454.1438 437.3597 446.5398 431.4983 438.6189 428.8052 432.4407 428.3299 431.6486 427.8547 430.3812 427.5379 429.4307 426.7458 427.6882 426.7458 428.005 427.3794 430.5397ZM461.5975 385.2325C466.0331 389.8266 469.5183 395.5296 470.6272 400.4405L471.1025 401.7078H471.7361C472.053 401.8662 472.6866 401.7078 473.0035 401.7078 473.7956 401.5494 473.7956 401.391 473.3203 399.3316 471.8945 392.0444 467.6173 386.0246 462.2311 383.9651 461.439 383.6483 460.647 383.3315 460.3301 383.3315 459.538 383.1731 459.6965 383.1731 461.5975 385.2325ZM487.7333 377.3116C489.6343 366.2225 494.3868 359.8858 501.5156 358.46 503.0997 358.1432 506.1096 358.1432 508.0106 358.6185 516.8819 360.5195 527.4959 368.4403 539.0603 382.0641 543.9712 387.7671 544.6049 388.7176 546.6643 393.9454 550.3079 403.292 551.8921 411.0544 551.5752 417.5495 551.4168 422.7772 549.6742 426.4208 546.6643 427.8466 545.0801 428.4802 542.8623 428.6387 540.8029 428.1634 534.4662 426.2624 526.7038 419.1337 519.4166 408.0445 518.4661 406.4603 517.5156 405.193 517.5156 405.193 517.3572 405.0346 518.4661 408.8366 521.0008 418.0247 522.5849 423.5693 524.6444 430.0644 526.7038 436.2427 532.09 452.2428 534.1494 459.0547 534.9415 462.8567 535.2583 463.9656 535.4167 464.7577 535.5751 465.0745 535.5751 465.2329 535.892 466.5003 536.2088 467.7676 536.3672 469.0349 536.8425 470.6191 536.8425 471.2528 537.3177 473.3122 537.4761 475.3716 537.1593 476.9558 537.0009 478.0647 536.8425 478.8568 536.0504 480.5994 533.6741 485.035 530.0306 487.4113 524.9612 487.4113 522.9018 487.4113 521.7929 487.0944 519.2582 485.8271 501.0403 475.3716 490.7432 428.3218 487.8917 407.7277 487.0996 401.5494 486.9412 398.3811 486.7828 392.0444 486.6244 385.3909 486.9412 381.5889 487.7333 377.3116ZM510.3869 456.6784C511.9711 464.4408 516.7236 471.4112 522.9018 475.2132L523.5354 475.53 524.1691 473.9459C524.3276 473.1538 524.486 472.3617 524.486 472.2033 524.486 472.0449 524.0107 471.728 523.5354 471.4112 518.6246 468.5597 512.9216 461.2725 510.7037 454.9358 510.3869 454.1438 510.2284 453.5101 510.0701 453.5101 509.9116 453.5101 510.0701 455.0943 510.3869 456.6784ZM535.4167 395.2127C537.6346 398.6979 539.694 403.7672 540.6445 407.8861L540.9613 409.6287 542.5455 408.8366C543.3376 408.3613 544.1296 407.8861 544.1296 407.7277 544.2881 407.4108 541.7534 402.8167 540.4861 400.9157 539.2187 398.6979 537.1593 396.3216 535.4167 394.5791L534.4662 393.6286 535.4167 395.2127ZM549.672 404.0841C551.7314 388.8761 558.0681 374.1433 570.5831 364.9551 573.1177 363.2125 576.2861 361.9452 579.2959 361.6284 583.7316 360.8363 587.6921 361.6284 590.8604 363.6878 596.5634 367.3314 597.9891 374.3017 594.8208 380.9552 593.2366 383.9651 590.702 386.8166 587.6921 388.7176 585.3158 390.3018 584.999 390.6186 583.7316 392.2028 581.1969 395.0543 578.1871 400.4405 577.8702 404.2425L577.7118 405.8267H578.1871C579.7712 405.8267 582.1474 402.9752 586.2663 395.8464 589.5931 390.3018 596.5634 381.5889 603.3753 380.9552 606.7021 380.6384 610.3456 382.5394 611.2961 384.9156 612.0882 386.4998 612.2466 389.5097 611.9298 395.0543 611.7714 399.49 611.613 409.7871 611.7714 410.1039 611.9298 410.1039 611.9298 415.3317 612.0882 421.3515 612.2466 433.5496 612.5635 437.0348 613.3555 440.3615 613.514 441.4704 613.9892 442.8962 614.3061 443.5298 614.9397 444.4803 614.9397 444.6388 615.5734 444.7972 616.3655 444.7972 616.6823 444.1635 617.1575 442.2625 618.2665 437.9853 618.4249 432.1238 617.6328 423.8862 616.5239 408.8366 615.415 399.1731 614.3061 391.5691 613.8308 389.3513 613.8308 388.084 613.8308 383.8067 613.8308 378.2621 613.9892 377.3116 614.9397 373.9849 616.6823 369.2324 620.0091 363.5294 625.8705 363.5294 628.5635 363.5294 632.0488 364.9551 634.2665 367.0145 635.0586 367.8066 635.8508 368.4403 636.1675 368.5987 636.8012 368.7571 638.5438 370.975 639.9695 373.1928 645.5141 381.7473 649.1578 393.3117 650.5835 407.094 650.9003 411.2128 651.0588 421.8267 650.5835 425.6287 649.1578 445.4308 639.1775 477.431 617.6328 481.7083 615.7318 482.0251 612.4051 482.0251 610.3456 481.7083 594.504 479.0152 585.9495 458.7378 583.0979 444.6388 582.6227 442.5793 582.3058 441.1536 582.1474 441.1536 582.1474 441.312 581.5138 441.6288 580.8801 441.9457 576.9197 444.7972 572.3256 446.0645 568.2068 445.5893 558.2265 444.3219 551.0978 434.0248 549.3552 418.5 549.0384 415.1732 549.1968 407.2524 549.672 404.0841ZM562.0285 426.104C563.1374 428.6387 562.9791 428.4802 564.5632 426.7377L565.9889 425.1535 565.6721 424.3614C565.3553 423.8862 564.8801 422.7772 564.5632 421.9852 562.1869 415.8069 561.5533 407.4108 562.9791 400.2821 563.2958 399.1731 563.4543 398.2226 563.4543 398.2226 563.2958 398.0642 562.3454 399.6484 561.7117 400.9157 558.2265 408.0445 558.2265 418.3416 562.0285 426.104ZM594.504 452.2428C595.7713 458.2626 597.8307 462.6983 600.8406 466.8171 602.108 468.7181 604.1674 470.7775 604.3258 470.4607 604.4842 470.4607 604.9595 469.5102 605.2763 468.4013L606.0684 466.6587 603.3753 463.9656C600.207 460.7973 597.9891 457.3121 595.4545 453.6685 594.9792 452.718 594.504 452.0843 594.504 452.2428ZM636.0091 386.183C636.0091 386.183 636.4844 387.1335 636.9596 388.2424 637.9101 390.1434 640.6032 397.4306 640.6032 399.49 640.7616 399.49 642.029 397.4306 642.3458 396.1632 642.5042 395.5296 642.5042 395.5296 641.3953 393.3117 640.7616 392.2028 639.8111 390.4602 639.1775 389.6681 637.9101 388.084 635.8508 385.8661 636.0091 386.183ZM650.5798 381.2721C652.7977 379.8463 655.6492 379.2126 658.6591 379.5295 660.7185 379.8463 662.4611 380.3216 664.5205 381.4305L666.2631 382.2226 666.8968 381.4305C672.1245 374.9354 679.4117 370.975 687.8078 369.7076 690.0256 369.3908 694.4612 369.3908 696.8375 369.7076 714.7386 371.4502 729.1545 385.0741 735.9665 400.9157 737.3922 404.5593 737.8675 406.3019 737.8675 409.3118 737.8675 412.6386 736.9169 415.0148 735.1744 416.9158 733.1149 418.8168 730.7387 419.6089 727.4119 419.4505 720.6 419.4505 713.9465 413.9059 709.9861 408.995 706.1841 404.0841 699.2138 400.7573 693.0355 400.4405 691.4513 400.2821 689.5503 400.4405 690.0256 400.7573 690.184 400.7573 691.2929 401.0742 692.4018 401.5494 699.2138 403.4504 712.2039 411.6881 712.2039 419.7673 712.2039 424.5198 708.0851 425.9456 703.8078 425.9456 699.8475 425.9456 694.1445 424.3614 690.0256 421.9852 689.3919 421.6683 688.7582 421.3515 688.7582 421.3515 688.5998 421.3515 688.7582 421.8267 689.0751 422.302 690.5008 425.3119 694.7781 428.005 697.788 429.1139L699.3722 429.7476H704.2831C709.6692 429.7476 710.4614 429.906 713.4712 430.8565 720.6 433.2328 726.303 438.7773 728.0456 445.2724 728.5209 446.8566 728.3625 450.5002 728.0456 452.0843 726.1446 459.2131 719.1742 462.5398 712.3624 462.5398 694.7781 462.5398 678.1443 446.5398 670.5403 431.807 666.2631 423.7277 664.2037 415.9653 663.7284 407.5692L663.57 405.0346 661.9858 404.8762C655.4908 404.2425 648.9957 399.0147 646.9362 392.6781 645.5105 388.2424 646.9362 383.6483 650.5798 381.2721ZM712.8376 389.6681C718.0654 395.0543 722.501 400.5989 724.402 404.5593 725.1941 405.9851 725.1941 405.9851 726.4615 406.4603 727.2535 406.9356 727.8872 407.094 728.0456 407.094 728.204 406.7772 726.9367 403.4504 725.8278 401.2326 722.8179 395.3711 717.4317 390.1434 712.2039 387.7671 709.8277 386.6582 709.8277 386.6582 712.8376 389.6681ZM687.9662 439.0942C690.5008 443.6883 695.4118 449.0744 699.2138 450.817L700.1642 451.2923 700.7979 450.5002C701.2732 450.1833 701.59 449.7081 701.59 449.7081 701.59 449.5497 700.9563 449.2328 700.1642 448.916 697.3128 447.4903 693.5108 444.3219 690.0256 440.3615 689.0751 439.0942 687.9662 437.8268 687.6493 437.51 687.1741 437.0348 687.0157 436.7179 687.0157 436.8763 687.0157 437.0348 687.4909 437.9853 687.9662 439.0942Z" fill="#2d2d2d"/>
</g>
<g clip-path="url(#clip_3)">
<path transform="matrix(1,0,0,-1,-258.1236,490.0511)" d="M260.6337 279.5389C261.7027 266.9488 266.0973 244.6192 280.9441 241.6499 281.538 241.5311 282.1319 241.4123 282.2506 241.4123 282.9633 241.2935 285.8139 241.5311 286.8828 241.7686 291.515 242.7188 296.1472 245.6882 300.6607 250.3204L302.086 251.7457H302.6798C303.3925 251.6269 306.0055 251.8645 307.0745 252.102 313.2508 253.4085 319.1895 258.5158 322.5152 263.8607 329.7604 274.6691 330.8294 289.1596 325.0094 297.9489 321.9213 302.6999 317.4079 305.1942 312.063 305.1942 308.6186 305.1942 305.0553 304.0064 301.6109 301.7497 300.8982 301.3934 300.4231 301.0371 300.4231 301.1558 300.4231 301.1558 300.7795 301.9873 301.1358 302.8187 304.5802 310.6578 305.8868 319.3283 304.5802 325.8609 303.2737 332.3935 299.5917 336.7882 294.2469 338.0947 292.7028 338.451 289.971 338.451 288.3081 338.0947 275.243 335.4816 264.9096 320.041 261.7027 307.8072 260.8712 304.1252 260.3962 301.3934 260.2774 296.9987 260.2774 295.4547 260.2774 293.198 260.1586 292.0102 260.0398 289.2784 260.2774 282.9834 260.6337 279.5389ZM286.6453 271.1059C286.7641 274.7879 294.1281 280.2515 300.6607 281.6768 302.5611 282.0332 304.5802 282.0332 305.4117 281.5581 306.4806 281.083 306.8369 280.1328 306.4806 278.945 305.0553 275.263 298.1664 270.512 292.4652 269.3243 288.7832 268.6117 286.6453 269.3243 286.6453 271.1059ZM276.9058 299.0179C278.5686 303.175 281.3004 307.3321 282.9633 308.1635 283.3196 308.4011 283.4384 308.4011 283.6759 308.1635 284.0323 307.8072 283.9135 305.5505 283.4384 303.7689 282.607 300.562 279.5188 293.198 276.4307 291.2976 275.8368 291.06 275.7181 291.06 275.4805 291.6539 275.1242 292.8416 275.7181 296.0485 276.9058 299.0179ZM270.2544 304.3628 270.3732 305.6693C270.7295 310.8953 272.8675 316.359 275.5993 320.7536 277.1433 323.0103 279.5188 325.6234 279.7564 325.267 279.9939 325.0295 280.1127 322.2977 280.1127 321.8226 280.2315 321.585 279.8752 321.1099 278.925 320.1597 277.2621 318.3781 276.4307 317.3092 275.4805 315.8839 273.6989 312.7957 272.036 309.3513 270.8483 305.9068L270.2544 304.3628ZM313.132 268.3741C315.0324 272.4124 316.1014 277.8761 315.745 282.1519 315.6263 283.1021 315.5075 284.1711 315.5075 284.4087 315.3887 285.0025 315.5075 285.1213 316.5764 286.309 317.1703 287.1405 317.6454 287.7343 317.7642 287.7343 318.0017 287.7343 318.3581 286.1903 318.4768 284.6462 319.0707 279.7764 316.9328 272.8875 313.4883 268.2553 313.0132 267.6615 312.6569 267.0676 312.6569 267.0676 312.5381 267.0676 312.7757 267.6615 313.132 268.3741ZM323.1079 259.8223C323.8205 254.8338 327.0274 252.5771 331.7784 252.5771 334.0351 252.5771 335.3416 252.8147 337.4796 253.6461L338.4298 254.1212 339.1424 252.9334C341.7554 249.1326 346.2689 246.0445 350.7823 245.0943 351.3762 244.9755 352.4451 244.9755 353.8704 244.9755 359.6904 244.9755 362.8973 248.5388 362.8973 254.0024 362.7785 256.6154 362.0659 258.7534 360.5218 260.8913 360.1655 261.4852 359.9279 261.8415 359.9279 261.9603 359.9279 261.9603 360.403 261.8415 361.1157 261.7227 362.4222 261.3664 363.9663 261.2476 365.5103 261.2476 373.2307 261.2476 383.9204 265.8798 387.4836 273.2439 389.8591 278.1136 388.0775 282.5083 382.9702 284.2899 381.0698 284.8837 379.5257 285.1213 376.7939 285.0025 373.4682 284.8837 370.6176 284.2899 367.5295 282.9834 366.9356 282.7458 366.4605 282.627 366.4605 282.7458 366.4605 282.7458 366.6981 282.9834 366.9356 283.2209 372.0429 290.4661 376.3188 299.9681 378.1004 308.6386 382.02 326.8111 377.6253 341.064 367.2919 343.7959 365.7479 344.271 362.3034 344.271 360.6406 343.9146 347.4566 340.9453 337.5983 325.9797 332.7286 313.9835 330.4719 308.2823 329.0466 302.5811 328.3339 296.5236 327.9776 293.6731 327.9776 287.8531 328.3339 285.4776 328.809 282.1519 329.5217 279.1826 330.5906 276.9259L330.947 276.0944 329.4029 274.4316C325.0082 269.7994 322.6328 264.4545 323.1079 259.8223ZM348.5256 300.7995C349.357 304.3628 353.9892 316.5965 358.3839 316.5965 359.2153 316.5965 359.8091 315.8839 359.8091 314.4586 359.8091 310.4202 356.721 303.4126 352.3264 297.4738 351.7325 296.5236 350.1884 294.5045 348.8819 292.9604 346.9815 290.5849 346.5064 290.1098 346.5064 290.3474 346.5064 291.5351 347.6942 297.5926 348.5256 300.7995ZM353.039 331.2058C353.8704 331.3245 353.9892 331.087 353.8704 330.1368 353.7517 329.1866 352.9202 326.9299 352.6827 326.5736 352.5639 326.4548 351.97 325.9797 351.2574 325.5046 346.9815 322.8916 343.2995 318.8532 340.924 314.221 340.5677 313.3896 339.9738 312.3206 339.855 311.9643 339.7363 311.4892 339.4987 311.2517 339.4987 311.3704 339.4987 316.8341 347.1003 330.4931 353.039 331.2058ZM376.2 270.512C377.1502 272.2937 378.5755 276.2132 379.0506 278.4699 379.2881 279.5389 379.5257 279.8952 380.0008 279.8952 380.4759 279.8952 381.3073 279.4201 381.9012 278.945 382.2575 278.7075 382.2575 278.4699 382.2575 278.1136 382.2575 274.7879 379.5257 271.8186 376.7939 270.1557 376.3188 269.9182 375.8437 269.6806 375.8437 269.6806 375.7249 269.6806 375.9625 270.0369 376.2 270.512ZM390.8082 258.2783C394.609 253.5273 400.0726 250.4392 405.8925 249.6077 407.5554 249.3702 410.9998 249.3702 412.5439 249.489 425.0152 251.033 435.9424 260.535 442.1187 271.2247 449.8391 284.6462 451.1456 300.4432 445.4444 311.8455 441.6436 319.8034 434.8735 324.792 426.678 325.8609 424.7777 326.0985 420.2642 325.9797 418.3638 325.6234 405.1799 323.1291 392.8273 311.4892 387.1262 296.2861 381.9001 282.1519 383.3254 267.4239 390.8082 258.2783ZM419.6704 299.493C420.7393 300.3244 421.6895 300.7995 422.4022 300.7995 423.1148 300.7995 423.7087 300.3244 424.065 299.493 424.4213 298.7804 424.4213 298.6616 424.4213 296.6424 424.4213 290.8225 420.6205 282.8646 416.5822 278.8263 415.1569 277.5197 414.2067 276.6883 413.1378 276.332 411.2374 275.5006 410.1684 276.6883 409.9308 279.4201 409.5745 285.5964 414.5631 295.9298 419.6704 299.493ZM398.7661 295.6922C400.1913 301.7497 404.2297 308.995 409.6933 315.1712 410.4059 316.1214 411.2374 316.9528 411.3561 317.0716 411.5937 317.1904 412.0688 316.9528 413.8504 315.7651 413.8504 315.7651 413.019 314.6961 411.7125 313.3896 406.2488 307.6884 401.8542 301.7497 399.835 297.1175 399.4787 296.5236 399.1224 295.5734 398.8848 294.8608 398.291 293.5543 398.291 293.7918 398.7661 295.6922ZM424.4213 261.7227C427.747 265.1672 430.36 269.4431 431.1915 273.1251L431.5478 274.0753H432.0229C432.2604 274.1941 432.7355 274.0753 432.9731 274.0753 433.567 273.9565 433.567 273.8377 433.2106 272.2937 432.1417 266.83 428.9348 262.3166 424.8964 260.7725 424.3026 260.535 423.7087 260.2974 423.4711 260.2974 422.8773 260.1787 422.996 260.1787 424.4213 261.7227ZM445.7996 287.9719C448.0563 285.1213 450.4318 284.0523 453.4012 284.765 461.2403 286.5466 468.3668 299.3742 471.0986 306.6195 471.5737 307.5697 471.93 308.5199 471.93 308.5199 472.0488 308.5199 472.8802 299.6118 473.1177 296.7612 473.1177 295.4547 473.3553 292.8416 473.5928 290.7037 474.0679 284.4087 475.4932 272.65 479.4128 267.4239 481.7883 263.9795 486.1829 260.1787 490.34 259.2285 491.8841 258.8722 494.1408 259.2285 495.5661 259.9411 496.6351 260.535 498.773 262.4354 499.7232 263.5044 502.8113 267.3051 504.4742 273.8377 503.9991 280.9642 503.6428 289.1596 500.5546 299.1367 497.1102 306.6195 494.7347 311.7268 493.6657 314.5774 492.478 318.3781 492.0029 320.1597 492.0029 320.7536 492.478 320.9912 493.9033 321.7038 499.7232 322.8916 501.7424 323.3667 507.5623 324.4356 515.1639 326.6923 518.252 328.1176 523.5968 330.8494 527.3976 335.4816 527.8727 339.8763 527.9915 341.3016 527.7539 343.202 527.3976 344.5085 527.0413 345.6962 525.7348 348.4281 524.7846 349.7346 523.5968 351.635 522.0528 352.5852 518.9646 353.6541 516.7079 354.3668 514.9263 354.6043 510.888 354.4856 498.773 354.248 487.4894 349.0219 477.2748 342.9644 471.4549 339.4012 462.0717 332.7498 457.6771 328.9491 449.838 321.8226 442.3552 311.4892 441.9988 300.4432 441.9988 296.2861 443.3054 291.2976 445.7996 287.9719ZM450.6694 305.3129C451.0257 307.6884 451.9759 310.8953 452.6885 312.7957 453.4012 314.4586 454.9453 317.0716 455.5391 317.3092 455.6579 317.4279 456.133 317.6655 456.3705 317.903 457.202 318.2594 457.5583 318.3781 458.0334 317.903 458.2709 317.6655 458.3897 317.4279 458.3897 316.9528 458.5085 315.8839 457.7958 314.3398 455.6579 310.7766 454.5889 309.1137 453.4012 307.2133 453.1636 306.6195 452.5698 305.4317 451.8571 303.4126 451.5008 301.6309 451.2632 301.0371 451.1445 299.9681 451.0257 299.2555L450.7881 298.0677 450.6694 298.8991C450.4318 300.0869 450.4318 303.5313 450.6694 305.3129ZM491.5278 270.0369C492.5967 273.4814 493.1906 277.0446 493.5469 281.4393 493.6657 284.765 493.9033 286.6654 494.022 286.9029 494.2596 287.2592 495.2098 285.7152 495.6849 284.1711 496.0412 282.7458 496.0412 279.4201 495.6849 277.9948 495.2098 275.9757 493.6657 272.5312 492.478 270.8684 492.1216 270.3933 491.7653 269.9182 491.6465 269.6806L491.409 269.3243 491.5278 270.0369ZM510.2928 258.9909C511.243 255.1901 514.0937 253.0522 517.3006 253.0522 518.7259 253.0522 520.1512 253.4085 521.5764 254.3587 522.0515 254.715 522.4079 254.9526 522.4079 254.9526 523.7144 251.033 525.8523 246.1633 530.1282 244.738 531.6723 244.2629 533.6914 244.5004 534.998 245.3319 538.0861 246.8759 539.8677 251.5081 540.5804 254.715 540.9367 256.7342 541.1742 260.1787 540.9367 261.9603 540.9367 262.7917 540.9367 263.5044 540.9367 263.5044 541.0555 263.6231 553.5268 268.0178 553.6455 268.0178 553.6455 268.0178 553.7643 267.6615 553.8831 267.1864 554.1206 265.7611 554.9521 262.5542 555.4272 260.8913 558.159 251.9832 562.4348 247.1135 566.592 247.8261 575.2625 249.0139 577.7567 269.5618 578.2318 275.8569 578.4694 278.5887 578.4694 287.1405 578.2318 289.991 577.4004 302.2248 574.6686 315.7651 565.523 324.6732 562.4348 327.7613 559.8218 329.1866 556.8524 329.1866 551.6264 329.1866 547.9444 324.0793 546.6379 315.1712 546.044 311.0141 546.1628 302.9375 546.8754 300.6807 546.9942 300.3244 547.4693 298.7804 547.8256 297.3551 548.657 294.6233 549.2509 292.9604 550.2011 290.5849 550.5574 289.8723 550.795 289.1596 550.795 289.0409 550.795 289.0409 550.6762 288.9221 550.5574 288.9221 548.3007 288.9221 542.2432 286.9029 540.4616 285.5964 540.1053 285.3588 539.7489 285.2401 539.7489 285.3588 539.7489 285.4776 539.8677 286.4278 539.9865 287.4968 541.8869 298.3053 541.0555 308.7574 537.9673 314.8149 536.7796 317.4279 535.2355 319.0908 533.3351 320.041L532.1474 320.6348H530.4845C527.0401 320.6348 523.5956 318.2594 521.1014 316.0026 517.063 312.3206 514.5688 306.857 513.6186 299.9681 513.381 297.9489 513.4998 292.6041 513.7373 290.2286 514.3312 285.1213 515.7565 280.014 517.8944 275.0255 518.2508 274.1941 518.4883 273.4814 518.4883 273.3626 518.3695 273.3626 518.0132 273.2439 517.5381 273.0063 513.9749 271.8186 511.3618 268.1366 510.4116 264.5733 509.9365 263.0293 509.9365 260.2974 510.2928 258.9909ZM552.6953 314.5774C553.0517 315.8839 554.0019 318.3781 554.1206 318.3781 554.2394 318.3781 556.021 316.9528 556.3774 316.5965 556.4961 316.4777 556.3774 316.1214 555.9023 314.5774 554.7145 311.0141 554.2394 307.6884 553.8831 304.0064L553.7643 301.6309 553.5268 302.3436C552.1015 305.6693 551.7452 310.6578 552.6953 314.5774ZM521.814 298.6616C521.814 301.7497 522.5266 304.6003 524.3083 308.0448L525.2585 309.9452H526.3274C526.9213 309.9452 527.5152 309.9452 527.5152 309.9452 527.5152 309.9452 527.1588 309.4701 526.8025 308.8762 524.3083 305.3129 523.2393 300.9183 523.2393 296.6424 523.2393 294.8608 523.3581 293.4355 523.4768 293.0792 523.4768 292.7229 523.5956 292.4853 523.4768 292.4853 523.2393 292.4853 522.4079 294.3857 522.0515 295.6922 521.814 296.6424 521.814 297.2363 521.814 298.6616ZM575.7364 258.7534C577.3992 257.6844 579.5371 257.2093 581.7939 257.4469 583.3379 257.6844 584.6444 258.0407 586.1885 258.8722L587.495 259.466 587.9701 258.8722C591.8897 254.0024 597.3533 251.033 603.6483 250.0828 605.3112 249.8453 608.6369 249.8453 610.4185 250.0828 623.84 251.3894 634.6485 261.604 639.7558 273.4814 640.8247 276.2132 641.1811 277.5197 641.1811 279.7764 641.1811 282.2707 640.4684 284.0523 639.1619 285.4776 637.6178 286.9029 635.8362 287.4968 633.342 287.378 628.2347 287.378 623.2461 283.2209 620.2768 279.5389 617.4262 275.8569 612.2001 273.3626 607.5679 273.1251 606.3802 273.0063 604.9549 273.1251 605.3112 273.3626 605.43 273.3626 606.2614 273.6002 607.0928 273.9565 612.2001 275.3818 621.9396 281.5581 621.9396 287.6156 621.9396 291.1788 618.8515 292.2478 615.6446 292.2478 612.6752 292.2478 608.3993 291.06 605.3112 289.2784 604.8361 289.0409 604.361 288.8033 604.361 288.8033 604.2422 288.8033 604.361 289.1596 604.5985 289.516 605.6675 291.7727 608.8744 293.7918 611.1311 294.6233L612.3189 295.0983H616.0009C620.0392 295.0983 620.6331 295.2171 622.8898 295.9298 628.2347 297.7114 632.5105 301.8685 633.817 306.7382 634.1734 307.926 634.0546 310.6578 633.817 311.8455 632.3918 317.1904 627.1657 319.6847 622.0584 319.6847 608.8744 319.6847 596.4031 307.6884 590.7019 296.6424 587.495 290.5849 585.951 284.765 585.5946 278.4699L585.4759 276.5695 584.2881 276.4508C579.4184 275.9757 574.5486 272.0561 573.0045 267.3051 571.9356 263.9795 573.0045 260.535 575.7364 258.7534ZM622.4147 265.0484C626.3343 269.0868 629.6599 273.2439 631.0852 276.2132 631.6791 277.2822 631.6791 277.2822 632.6293 277.6385 633.2232 277.9948 633.6983 278.1136 633.817 278.1136 633.9358 277.8761 632.9856 275.3818 632.1542 273.719 629.8975 269.3243 625.8592 265.4047 621.9396 263.6231 620.158 262.7917 620.158 262.7917 622.4147 265.0484ZM603.7671 302.106C605.6675 305.5505 609.3495 309.5888 612.2001 310.8953L612.9128 311.2517 613.3879 310.6578C613.7442 310.4202 613.9817 310.0639 613.9817 310.0639 613.9817 309.9452 613.5066 309.7076 612.9128 309.4701 610.7748 308.4011 607.9242 306.0256 605.3112 303.0562 604.5985 302.106 603.7671 301.1558 603.5296 300.9183 603.1733 300.562 603.0545 300.3244 603.0545 300.4432 603.0545 300.562 603.4108 301.2746 603.7671 302.106ZM636.3102 259.8223C637.0228 254.8338 640.2297 252.5771 644.9807 252.5771 647.2374 252.5771 648.5439 252.8147 650.6819 253.6461L651.6321 254.1212 652.3447 252.9334C654.9577 249.1326 659.4712 246.0445 663.9846 245.0943 664.5785 244.9755 665.6474 244.9755 667.0727 244.9755 672.8927 244.9755 676.0996 248.5388 676.0996 254.0024 675.9808 256.6154 675.2682 258.7534 673.7241 260.8913 673.3678 261.4852 673.1302 261.8415 673.1302 261.9603 673.1302 261.9603 673.6053 261.8415 674.318 261.7227 675.6245 261.3664 677.1686 261.2476 678.7126 261.2476 686.433 261.2476 697.1227 265.8798 700.6859 273.2439 703.0614 278.1136 701.2798 282.5083 696.1725 284.2899 694.2721 284.8837 692.728 285.1213 689.9962 285.0025 686.6705 284.8837 683.8199 284.2899 680.7318 282.9834 680.1379 282.7458 679.6628 282.627 679.6628 282.7458 679.6628 282.7458 679.9004 282.9834 680.1379 283.2209 685.2452 290.4661 689.5211 299.9681 691.3027 308.6386 695.2223 326.8111 690.8276 341.064 680.4942 343.7959 678.9502 344.271 675.5057 344.271 673.8429 343.9146 660.6589 340.9453 650.8006 325.9797 645.9309 313.9835 643.6742 308.2823 642.2489 302.5811 641.5362 296.5236 641.1799 293.6731 641.1799 287.8531 641.5362 285.4776 642.0113 282.1519 642.724 279.1826 643.7929 276.9259L644.1493 276.0944 642.6052 274.4316C638.2105 269.7994 635.8351 264.4545 636.3102 259.8223ZM661.7279 300.7995C662.5593 304.3628 667.1915 316.5965 671.5862 316.5965 672.4176 316.5965 673.0114 315.8839 673.0114 314.4586 673.0114 310.4202 669.9233 303.4126 665.5287 297.4738 664.9348 296.5236 663.3907 294.5045 662.0842 292.9604 660.1838 290.5849 659.7087 290.1098 659.7087 290.3474 659.7087 291.5351 660.8965 297.5926 661.7279 300.7995ZM666.2413 331.2058C667.0727 331.3245 667.1915 331.087 667.0727 330.1368 666.954 329.1866 666.1225 326.9299 665.885 326.5736 665.7662 326.4548 665.1723 325.9797 664.4597 325.5046 660.1838 322.8916 656.5018 318.8532 654.1263 314.221 653.77 313.3896 653.1761 312.3206 653.0573 311.9643 652.9386 311.4892 652.701 311.2517 652.701 311.3704 652.701 316.8341 660.3026 330.4931 666.2413 331.2058ZM689.4023 270.512C690.3525 272.2937 691.7778 276.2132 692.2529 278.4699 692.4905 279.5389 692.728 279.8952 693.2031 279.8952 693.6782 279.8952 694.5096 279.4201 695.1035 278.945 695.4598 278.7075 695.4598 278.4699 695.4598 278.1136 695.4598 274.7879 692.728 271.8186 689.9962 270.1557 689.5211 269.9182 689.046 269.6806 689.046 269.6806 688.9272 269.6806 689.1648 270.0369 689.4023 270.512ZM698.5468 294.6233C701.635 287.9719 708.8802 284.6462 715.8879 284.6462 719.9262 284.6462 727.6466 285.1213 731.8037 285.9527 735.1294 286.4278 737.3861 286.0715 738.9301 285.0025 739.8803 284.4087 740.2367 283.5772 740.2367 282.3895 740.2367 279.7764 738.0987 278.1136 735.6045 277.6385 734.2979 277.401 732.0412 277.5197 730.6159 277.8761 728.8343 278.3512 725.2711 279.5389 721.8266 280.8454 718.1446 282.2707 716.0067 282.8646 713.5124 283.2209 710.5431 283.5772 707.93 283.3397 706.0296 282.2707 703.0603 280.9642 701.3974 276.8071 700.6848 273.8377 700.3285 272.0561 700.3285 269.0868 700.6848 267.7802 701.3974 264.217 704.4856 261.0101 707.2174 258.7534 712.0871 254.9526 717.7883 252.5771 724.5584 251.8645 724.9148 251.8645 726.5776 251.8645 728.3592 251.8645 730.9723 251.8645 732.0412 251.9832 734.0604 252.2208 738.5738 253.0522 745.9378 255.4277 749.6198 258.2783 757.459 263.9795 760.9034 271.6998 763.1601 280.9642 763.754 283.1021 763.754 283.3397 763.8728 285.8339 763.8728 290.9412 762.685 294.742 760.072 299.0179 755.9149 304.9566 748.6696 309.9452 741.3056 309.9452 738.0987 309.9452 736.4359 309.7076 732.9914 308.7574 729.9033 307.8072 728.0029 307.5697 725.865 307.6884 724.3209 307.8072 723.2519 307.926 722.5393 308.4011 722.0642 308.6386 721.5891 309.1137 721.5891 309.3513 721.5891 309.7076 722.7768 310.7766 723.6082 311.2517 725.2711 312.0831 726.4588 312.4394 728.478 312.5582 734.2979 312.7957 747.3631 313.8647 750.8076 319.3283 752.5892 321.9414 753.0643 325.6234 751.9953 328.2364 750.6888 331.4433 746.4129 335.0066 742.4934 336.3131 740.4742 336.9069 738.6926 337.1445 735.3669 337.1445 718.5009 337.1445 706.0296 328.2364 699.7346 313.0333 699.0219 311.4892 698.1905 308.7574 697.8342 306.9758 697.0028 302.8187 697.2403 297.2363 698.5468 294.6233ZM708.4051 309.8264C708.8802 312.3206 710.3055 316.5965 711.4933 318.7345 713.2749 321.9414 716.1255 325.0295 717.3132 325.0295 717.5508 325.0295 717.7883 325.0295 717.9071 325.1483 717.9071 325.1483 718.1446 325.267 718.3822 325.267 718.8573 325.3858 718.976 325.267 719.3324 324.9107 719.8075 324.3169 719.8075 323.8418 719.4511 323.2479 719.0948 322.7728 718.5009 322.2977 716.6006 320.8724 713.1561 318.2594 710.7806 315.29 709.1178 311.2517 708.999 310.7766 708.6427 309.8264 708.5239 309.1137 708.1676 307.8072 708.0488 308.1635 708.4051 309.8264ZM745.5815 266.4737C748.0758 269.0868 749.7386 271.6998 751.4015 275.6193 752.1141 277.1634 752.708 278.1136 753.7769 278.8263 754.4896 279.3014 754.6084 279.3014 754.6084 278.4699 754.6084 274.3128 748.6696 268.3741 745.2252 265.7611L744.3938 265.1672 745.5815 266.4737Z" fill="#2d2d2d"/>
</g>
</g>
</svg>
